<?xml version="1.0" encoding="iso-8859-1"?>
<!-- Uploaded to: SVG Repo, www.svgrepo.com, Generator: SVG Repo Mixer Tools -->
<svg height="90px" width="90px" version="1.1" id="Layer_1" xmlns="http://www.w3.org/2000/svg" xmlns:xlink="http://www.w3.org/1999/xlink" 
	 viewBox="0 0 512 512" xml:space="preserve">
<path style="fill:#915b4e;" d="M242.406,472.926c-109.133-6.793-196.54-94.208-203.332-203.332v-27.187
	c6.793-109.124,94.199-196.54,203.332-203.332h27.187c109.133,6.793,196.54,94.208,203.332,203.332v27.187
	c-6.793,109.124-94.199,196.54-203.332,203.332L242.406,472.926L242.406,472.926z M256,371.132l11.52-1.161
	c53.931-5.436,97.024-48.529,102.46-102.46L371.132,256l-1.161-11.52c-5.427-53.931-48.521-97.024-102.451-102.451L256,140.868
	l-11.52,1.161c-53.931,5.427-97.024,48.521-102.451,102.451L140.868,256l1.161,11.52c5.436,53.931,48.529,97.024,102.46,102.46
	L256,371.132L256,371.132z"/>
<g>
	<path style="fill:#FFB7B2;" d="M140.365,256l1.826-14.404c6.579-51.951,47.454-92.817,99.396-99.396L256,140.365V256H140.365z"/>
	<path style="fill:#FFB7B2;" d="M256,256h115.635l-1.826,14.404c-6.579,51.951-47.454,92.817-99.396,99.396L256,371.635V256z"/>
	<path style="fill:#FFB7B2;" d="M256,256V140.365l14.404,1.826c51.951,6.579,92.817,47.454,99.396,99.396L371.635,256H256z"/>
	<path style="fill:#FFB7B2;" d="M241.596,369.809c-51.951-6.579-92.817-47.454-99.396-99.396L140.365,256H256v115.635
		L241.596,369.809z"/>
</g>
<g>
	<path style="fill:#573A32;" d="M268.8,129.289V102.4h-25.6v26.889c-60.322,6.076-107.827,53.589-113.911,113.911H102.4v25.6h26.889
		c6.076,60.322,53.589,107.827,113.911,113.911V409.6h25.6v-26.889c60.322-6.076,107.827-53.589,113.911-113.911H409.6v-25.6
		h-26.889C376.627,182.878,329.122,135.373,268.8,129.289z M243.2,357.103c-46.131-5.845-82.466-42.172-88.303-88.303H243.2V357.103
		z M243.2,243.2h-88.303c5.845-46.14,42.172-82.466,88.303-88.303V243.2z M268.8,357.103V268.8h88.303
		C351.266,314.94,314.94,351.266,268.8,357.103z M268.8,243.2v-88.303c46.14,5.845,82.466,42.172,88.303,88.303H268.8z"/>
	<path style="fill:#573A32;" d="M485.751,243.2C479.309,126.208,385.792,32.691,268.8,26.249V0h-25.6v26.249
		C126.208,32.691,32.691,126.208,26.249,243.2H0v25.6h26.249c6.443,116.992,99.959,210.509,216.951,216.951V512h25.6v-26.249
		c116.992-6.443,210.509-99.959,216.951-216.951H512v-25.6H485.751z M460.151,268.8C453.76,371.507,371.507,453.76,268.8,460.151
		V435.2h-25.6v24.951C140.493,453.76,58.24,371.507,51.849,268.8H76.8v-25.6H51.849C58.24,140.493,140.493,58.24,243.2,51.849V76.8
		h25.6V51.849C371.507,58.24,453.76,140.493,460.151,243.2H435.2v25.6H460.151z"/>
</g>
</svg>