<?xml version="1.0" encoding="iso-8859-1"?>
<!-- Uploaded to: SVG Repo, www.svgrepo.com, Generator: SVG Repo Mixer Tools -->
<svg height="70px" width="70px" version="1.1" id="Layer_1" xmlns="http://www.w3.org/2000/svg" xmlns:xlink="http://www.w3.org/1999/xlink" 
	 viewBox="0 0 512 512" xml:space="preserve">
<path style="fill:#FFE477;" d="M439.668,183.652c0,55.541-24.821,107.52-68.118,142.581c-16.14,13.023-28.27,31.499-32.056,52.202
	H172.537c-3.674-20.703-15.804-39.068-31.833-51.979C88.167,283.938,63.569,218.49,75.146,151.263
	C87.946,76.355,146.825,16.807,221.4,3.117C232.974,1.002,244.551,0,256.015,0c42.852,0.111,84.37,14.915,117.538,42.518
	C415.514,77.579,439.668,129.002,439.668,183.652z"/>
<path style="fill:#FFB655;" d="M439.668,183.652c0,55.541-24.821,107.52-68.118,142.581c-16.14,13.023-28.27,31.499-32.056,52.202
	h-83.478V0c42.852,0.111,84.37,14.915,117.538,42.518C415.514,77.579,439.668,129.002,439.668,183.652z"/>
<path style="fill:#79695A;" d="M256.015,512c-9.217,0-16.696-7.473-16.696-16.696v-33.391c0-9.223,7.479-16.696,16.696-16.696
	c9.217,0,16.696,7.473,16.696,16.696v33.391C272.711,504.527,265.232,512,256.015,512z"/>
<path style="fill:#6C5B52;" d="M272.711,495.304v-33.391c0-9.223-7.479-16.696-16.696-16.696V512
	C265.232,512,272.711,504.527,272.711,495.304z"/>
<path style="fill:#DDDD47;" d="M256.015,411.826c-9.217,0-16.696-7.473-16.696-16.696V250.435c0-9.223,7.479-16.696,16.696-16.696
	c9.217,0,16.696,7.473,16.696,16.696V395.13C272.711,404.353,265.232,411.826,256.015,411.826z"/>
<path style="fill:#C7D100;" d="M272.711,395.13V250.435c0-9.223-7.479-16.696-16.696-16.696v178.087
	C265.232,411.826,272.711,404.353,272.711,395.13z"/>
<path style="fill:#DBE1F1;" d="M289.407,478.609h-66.783c-27.662,0-50.087-22.424-50.087-50.087v-50.087h166.956v50.087
	C339.494,456.184,317.068,478.609,289.407,478.609z"/>
<path style="fill:#D0D5E5;" d="M256.015,478.609h33.391c27.664,0,50.087-22.424,50.087-50.087v-50.087h-83.478V478.609z"/>
<path style="fill:#7CCC92;" d="M356.189,133.565h-33.391c-27.27,0-51.534,13.245-66.783,33.614
	c-15.249-20.369-39.513-33.614-66.783-33.614h-33.391c-9.239,0-16.696,7.457-16.696,16.696v33.391
	c0,46.08,37.398,83.478,83.478,83.478h66.783c46.08,0,83.478-37.398,83.478-83.478v-33.391
	C372.885,141.023,365.427,133.565,356.189,133.565z"/>
<path style="fill:#34B772;" d="M372.885,150.261v33.391c0,46.08-37.398,83.478-83.478,83.478h-33.391v-99.951
	c15.249-20.369,39.513-33.614,66.783-33.614h33.391C365.427,133.565,372.885,141.023,372.885,150.261z"/>
</svg>